<?xml version="1.0" standalone="no"?>
<!DOCTYPE svg PUBLIC "-//W3C//DTD SVG 20010904//EN"
 "http://www.w3.org/TR/2001/REC-SVG-20010904/DTD/svg10.dtd">
<svg version="1.0" xmlns="http://www.w3.org/2000/svg"
 width="736.000000pt" height="869.000000pt" viewBox="0 0 736.000000 869.000000"
 preserveAspectRatio="xMidYMid meet">

<g transform="translate(0.000000,869.000000) scale(0.100000,-0.100000)"
fill="#000000" stroke="none">
<path d="M3610 8406 c0 -2 8 -10 18 -17 15 -13 16 -12 3 4 -13 16 -21 21 -21
13z"/>
<path d="M2520 8175 c0 -9 6 -12 15 -9 8 4 15 7 15 9 0 2 -7 5 -15 9 -9 3 -15
0 -15 -9z"/>
<path d="M2858 8183 c7 -3 16 -2 19 1 4 3 -2 6 -13 5 -11 0 -14 -3 -6 -6z"/>
<path d="M3195 8179 c-11 -16 -1 -19 13 -3 7 8 8 14 3 14 -5 0 -13 -5 -16 -11z"/>
<path d="M3671 8174 c0 -11 3 -14 6 -6 3 7 2 16 -1 19 -3 4 -6 -2 -5 -13z"/>
<path d="M3690 8179 c0 -5 5 -7 10 -4 6 3 10 8 10 11 0 2 -4 4 -10 4 -5 0 -10
-5 -10 -11z"/>
<path d="M3980 8175 c0 -8 2 -15 4 -15 2 0 6 7 10 15 3 8 1 15 -4 15 -6 0 -10
-7 -10 -15z"/>
<path d="M4582 8170 c0 -14 2 -19 5 -12 2 6 2 18 0 25 -3 6 -5 1 -5 -13z"/>
<path d="M4801 8174 c0 -11 3 -14 6 -6 3 7 2 16 -1 19 -3 4 -6 -2 -5 -13z"/>
<path d="M2565 8171 c-6 -11 9 -23 19 -14 9 9 7 23 -3 23 -6 0 -12 -4 -16 -9z"/>
<path d="M2600 8172 c0 -5 7 -9 15 -9 8 0 15 4 15 9 0 4 -7 8 -15 8 -8 0 -15
-4 -15 -8z"/>
<path d="M2665 8171 c-3 -5 0 -13 6 -17 7 -4 9 -3 5 4 -3 5 0 13 6 15 9 4 10
6 1 6 -6 1 -14 -3 -18 -8z"/>
<path d="M3810 8171 c0 -7 -5 -9 -12 -5 -7 5 -8 3 -3 -5 5 -9 10 -10 18 -2 6
6 8 14 4 18 -4 3 -7 1 -7 -6z"/>
<path d="M4391 8163 c-7 -8 -11 -16 -8 -19 2 -2 10 2 17 11 17 20 9 27 -9 8z"/>
<path d="M3380 8159 c0 -5 5 -7 10 -4 6 3 10 8 10 11 0 2 -4 4 -10 4 -5 0 -10
-5 -10 -11z"/>
<path d="M5338 7262 c-11 -2 -18 -13 -18 -25 0 -12 -3 -46 -6 -74 -6 -48 -5
-53 12 -53 14 0 16 -2 6 -9 -18 -11 -42 -59 -42 -83 0 -14 -5 -18 -15 -14 -17
6 -35 -29 -35 -70 0 -13 -4 -24 -9 -24 -5 0 -7 9 -4 19 5 20 5 20 -33 0 -25
-12 -59 -19 -96 -19 -31 0 -60 -4 -63 -10 -3 -5 -16 -10 -28 -11 -20 -1 -20
-2 3 -9 24 -7 24 -7 -10 -14 -19 -4 -71 -6 -115 -4 -71 3 -80 5 -77 21 3 17
-1 18 -40 12 -83 -13 -79 -7 -56 -88 16 -56 18 -78 10 -102 -6 -16 -13 -46
-17 -65 -4 -19 -11 -40 -17 -47 -21 -26 -4 -104 25 -109 20 -4 20 -7 -3 -14
-18 -6 -5 -8 45 -9 39 0 65 3 58 7 -8 5 -8 11 1 24 9 13 32 17 106 19 l95 3 9
-27 c9 -24 15 -27 59 -27 52 0 59 5 100 64 l26 39 7 -51 7 -52 62 0 c55 0 63
2 61 18 -2 9 -19 25 -40 35 -33 16 -37 21 -34 49 2 25 9 33 31 39 21 6 27 4
27 -9 0 -10 9 -23 20 -30 17 -10 20 -10 20 3 0 8 7 15 15 15 8 0 15 -5 15 -11
0 -8 4 -8 13 -2 15 12 47 13 47 1 0 -4 7 -8 15 -8 8 0 15 -6 15 -12 0 -9 4 -8
10 2 8 12 10 12 10 -5 0 -15 2 -17 9 -7 7 12 14 11 40 -2 21 -11 31 -13 31 -5
0 8 11 9 33 5 23 -4 28 -3 17 4 -8 5 -12 10 -7 11 13 3 27 6 32 9 3 1 8 3 13
4 4 1 13 5 21 10 10 7 12 6 6 -4 -6 -10 -3 -12 13 -8 17 5 22 1 24 -15 2 -31
3 -39 12 -64 7 -23 9 -23 212 -23 l204 0 0 43 -1 42 -15 -27 c-8 -16 -20 -25
-28 -22 -8 3 -17 0 -21 -5 -3 -6 -11 -9 -16 -6 -5 4 -9 1 -9 -4 0 -7 -31 -11
-83 -11 l-83 0 -3 41 c-3 64 7 99 31 99 25 0 18 24 -8 28 -22 3 -48 70 -38 96
3 9 1 16 -4 16 -6 0 -12 -10 -14 -22 -2 -18 -11 -24 -35 -26 -34 -3 -39 4 -35
51 1 10 -2 26 -8 35 -9 16 -9 16 -10 0 0 -24 -100 69 -100 94 0 10 -7 18 -15
18 -34 0 8 -79 42 -80 6 0 17 -16 23 -35 6 -19 16 -32 21 -29 6 3 16 -2 23
-12 11 -15 11 -20 0 -31 -10 -10 -61 -13 -238 -10 -124 2 -226 0 -226 -4 0 -5
-13 -9 -30 -9 -17 0 -29 3 -29 8 5 27 -3 52 -16 52 -8 0 -15 5 -15 10 0 19 -2
25 -11 36 -11 13 -1 24 21 24 9 0 29 11 43 24 14 13 28 21 31 18 3 -3 6 3 6
12 0 12 5 16 15 13 8 -4 17 -2 20 3 4 6 -3 10 -14 10 -17 0 -21 6 -21 36 0 23
7 42 19 52 24 21 56 166 34 158 -13 -6 -17 12 -13 68 1 21 -2 26 -12 20 -10
-6 -10 -4 1 9 16 20 13 25 -11 19z m-78 -585 c10 -4 8 -6 -7 -6 -16 -1 -23 5
-23 17 0 10 3 13 8 6 4 -6 14 -14 22 -17z m580 -171 c0 -36 -17 -41 -22 -6 -3
20 0 30 9 30 7 0 13 -11 13 -24z"/>
<path d="M5513 7243 c9 -2 23 -2 30 0 6 3 -1 5 -18 5 -16 0 -22 -2 -12 -5z"/>
<path d="M3317 7134 c6 -118 11 -128 12 -24 0 47 -3 91 -8 99 -5 8 -7 -22 -4
-75z"/>
<path d="M2028 7187 c-9 -7 -18 -26 -20 -42 -2 -17 -8 -29 -15 -27 -7 1 -13
-5 -13 -13 0 -8 5 -15 10 -15 6 0 10 -9 10 -20 0 -11 3 -20 8 -20 4 0 8 26 10
57 2 35 10 65 19 75 19 21 15 23 -9 5z"/>
<path d="M5660 7159 c7 -11 14 -18 17 -15 8 8 -5 36 -17 36 -7 0 -7 -6 0 -21z"/>
<path d="M3198 7068 c2 -51 9 -100 14 -108 6 -10 8 -4 4 19 -3 18 -6 67 -6
107 0 41 -4 74 -9 74 -5 0 -6 -42 -3 -92z"/>
<path d="M5411 7144 c0 -11 3 -14 6 -6 3 7 2 16 -1 19 -3 4 -6 -2 -5 -13z"/>
<path d="M5438 7114 c-2 -25 0 -50 3 -56 4 -6 8 13 10 42 2 28 1 54 -2 56 -4
2 -9 -17 -11 -42z"/>
<path d="M5491 7144 c0 -11 3 -14 6 -6 3 7 2 16 -1 19 -3 4 -6 -2 -5 -13z"/>
<path d="M5520 7155 c0 -5 14 -36 30 -70 17 -34 29 -71 29 -81 -4 -34 1 -54
11 -54 19 0 1 88 -31 146 -34 64 -39 72 -39 59z"/>
<path d="M5557 7142 c3 -12 9 -25 14 -28 14 -8 11 10 -6 32 -13 18 -14 18 -8
-4z"/>
<path d="M5593 7135 c3 -11 8 -32 11 -47 4 -16 10 -28 15 -28 5 0 2 19 -6 42
-15 45 -29 68 -20 33z"/>
<path d="M5486 7112 c-3 -5 -2 -22 3 -38 l8 -29 4 38 c5 34 -3 48 -15 29z"/>
<path d="M5690 7112 c0 -5 16 -41 35 -78 29 -59 34 -65 35 -40 0 16 -7 34 -16
40 -9 7 -19 27 -23 46 -6 30 -31 56 -31 32z"/>
<path d="M4462 7085 c0 -16 2 -22 5 -12 2 9 2 23 0 30 -3 6 -5 -1 -5 -18z"/>
<path d="M3062 7075 c0 -16 2 -22 5 -12 2 9 2 23 0 30 -3 6 -5 -1 -5 -18z"/>
<path d="M2032 7070 c0 -14 2 -19 5 -12 2 6 2 18 0 25 -3 6 -5 1 -5 -13z"/>
<path d="M3471 7074 c0 -11 3 -14 6 -6 3 7 2 16 -1 19 -3 4 -6 -2 -5 -13z"/>
<path d="M2980 7046 c0 -19 5 -38 10 -41 6 -4 10 10 10 34 0 23 -4 41 -10 41
-5 0 -10 -15 -10 -34z"/>
<path d="M4162 7046 c-14 -39 -16 -118 -3 -97 7 11 10 9 13 -10 3 -13 6 11 9
54 2 44 1 81 -2 82 -3 2 -11 -11 -17 -29z"/>
<path d="M3132 7040 c0 -14 2 -19 5 -12 2 6 2 18 0 25 -3 6 -5 1 -5 -13z"/>
<path d="M5521 7028 c-1 -21 4 -38 9 -38 12 0 12 27 0 55 -7 16 -9 13 -9 -17z"/>
<path d="M4296 7035 c-3 -9 -6 -22 -5 -28 0 -7 5 -1 10 12 5 13 8 26 5 28 -2
2 -6 -3 -10 -12z"/>
<path d="M4800 7035 c-15 -18 -16 -17 31 -33 43 -15 141 -15 274 -1 55 6 106
11 113 11 6 1 12 6 12 11 0 7 -71 8 -202 4 -126 -4 -198 -3 -192 3 5 5 38 11
74 13 64 3 64 3 -16 5 -63 2 -84 -2 -94 -13z"/>
<path d="M5422 7020 c0 -19 2 -27 5 -17 2 9 2 25 0 35 -3 9 -5 1 -5 -18z"/>
<path d="M5460 7020 c0 -16 4 -30 8 -30 5 0 7 14 4 30 -2 17 -6 30 -8 30 -2 0
-4 -13 -4 -30z"/>
<path d="M5638 7000 c2 -27 9 -50 14 -50 6 0 8 9 5 20 -3 11 -1 20 3 20 5 0 3
14 -3 30 -16 43 -22 37 -19 -20z"/>
<path d="M4233 6980 c-5 -33 -6 -60 -2 -60 9 0 24 108 17 116 -3 2 -10 -23
-15 -56z"/>
<path d="M3631 6968 c3 -104 17 -124 18 -25 1 53 -3 87 -9 87 -6 0 -10 -25 -9
-62z"/>
<path d="M3996 7022 c-3 -5 -8 -29 -10 -53 -5 -43 -4 -40 14 29 8 31 7 41 -4
24z"/>
<path d="M3903 6975 c0 -27 2 -38 4 -22 2 15 2 37 0 50 -2 12 -4 0 -4 -28z"/>
<path d="M3131 6994 c0 -11 3 -14 6 -6 3 7 2 16 -1 19 -3 4 -6 -2 -5 -13z"/>
<path d="M4271 6993 c-1 -12 4 -25 9 -28 12 -7 12 2 0 30 -8 19 -9 19 -9 -2z"/>
<path d="M4437 7003 c-9 -9 -9 -53 1 -53 4 0 7 14 7 30 0 17 0 30 -1 30 0 0
-4 -3 -7 -7z"/>
<path d="M3331 6984 c0 -11 3 -14 6 -6 3 7 2 16 -1 19 -3 4 -6 -2 -5 -13z"/>
<path d="M3822 6980 c0 -14 2 -19 5 -12 2 6 2 18 0 25 -3 6 -5 1 -5 -13z"/>
<path d="M4757 6994 c-2 -3 -2 -14 0 -25 5 -19 12 -20 87 -16 45 3 71 3 59 1
-29 -7 -30 -24 -2 -24 11 0 30 -5 41 -11 28 -15 141 7 164 32 17 19 13 19
-160 19 -107 0 -175 4 -171 9 6 11 -9 24 -18 15z"/>
<path d="M5499 6999 c-6 -39 -2 -86 8 -86 9 0 11 12 8 40 -4 34 -13 61 -16 46z"/>
<path d="M2983 6940 c0 -30 2 -43 4 -27 2 15 2 39 0 55 -2 15 -4 2 -4 -28z"/>
<path d="M5437 6975 c-4 -8 -2 -17 3 -20 6 -4 10 3 10 14 0 25 -6 27 -13 6z"/>
<path d="M5760 6957 c0 -2 25 -51 56 -108 46 -86 55 -98 50 -66 -2 20 -1 37 5
37 20 0 8 31 -16 40 -19 7 -25 17 -25 39 0 47 -10 61 -41 61 -16 0 -29 -2 -29
-3z"/>
<path d="M3325 6940 c-3 -5 -1 -18 4 -27 9 -16 10 -14 11 10 0 28 -5 34 -15
17z"/>
<path d="M5733 6936 c0 -8 6 -12 14 -9 7 3 10 9 7 14 -8 14 -21 11 -21 -5z"/>
<path d="M3462 6915 c0 -16 2 -22 5 -12 2 9 2 23 0 30 -3 6 -5 -1 -5 -18z"/>
<path d="M5430 6930 c0 -5 5 -10 10 -10 6 0 10 5 10 10 0 6 -4 10 -10 10 -5 0
-10 -4 -10 -10z"/>
<path d="M5587 6928 c4 -7 8 -22 9 -33 3 -42 14 -111 24 -140 9 -27 9 -25 5
17 -4 46 -4 47 28 51 l32 4 -32 1 c-24 2 -33 7 -33 20 0 31 -21 92 -31 92 -6
0 -7 -5 -2 -12z"/>
<path d="M5650 6930 c0 -5 -8 -10 -17 -10 -13 0 -14 -3 -5 -12 8 -8 15 -8 27
2 17 14 20 30 5 30 -5 0 -10 -4 -10 -10z"/>
<path d="M3211 6914 c0 -11 3 -14 6 -6 3 7 2 16 -1 19 -3 4 -6 -2 -5 -13z"/>
<path d="M4272 6905 c0 -16 2 -22 5 -12 2 9 2 23 0 30 -3 6 -5 -1 -5 -18z"/>
<path d="M3823 6885 c0 -22 2 -30 4 -17 2 12 2 30 0 40 -3 9 -5 -1 -4 -23z"/>
<path d="M4221 6890 c0 -8 4 -24 9 -35 l9 -20 0 20 c0 11 -4 27 -9 35 -9 13
-10 13 -9 0z"/>
<path d="M5430 6877 c0 -13 -11 -37 -25 -53 -14 -16 -28 -44 -31 -62 -4 -18
-11 -31 -18 -29 -6 3 -10 10 -8 16 1 6 -2 11 -8 11 -5 0 -10 -8 -10 -19 0 -12
9 -20 25 -23 22 -5 25 -2 25 23 0 16 4 29 10 29 5 0 7 7 4 15 -4 9 3 19 20 26
14 7 27 15 27 18 7 38 7 71 -1 71 -6 0 -10 -11 -10 -23z"/>
<path d="M5500 6861 c0 -25 5 -41 15 -45 8 -3 16 -16 16 -28 1 -18 2 -19 6 -5
3 10 1 26 -3 35 -10 24 -11 29 -13 57 -2 41 -21 28 -21 -14z"/>
<path d="M3902 6860 c0 -14 2 -19 5 -12 2 6 2 18 0 25 -3 6 -5 1 -5 -13z"/>
<path d="M5718 6848 c9 -9 15 -9 24 0 9 9 7 12 -12 12 -19 0 -21 -3 -12 -12z"/>
<path d="M5772 6831 c-11 -6 -9 -9 6 -13 15 -4 19 -2 15 8 -6 16 -4 16 -21 5z"/>
<path d="M5358 6823 c7 -3 16 -2 19 1 4 3 -2 6 -13 5 -11 0 -14 -3 -6 -6z"/>
<path d="M5885 6800 c3 -5 13 -10 21 -10 8 0 14 5 14 10 0 6 -9 10 -21 10 -11
0 -17 -4 -14 -10z"/>
<path d="M5331 6784 c0 -11 3 -14 6 -6 3 7 2 16 -1 19 -3 4 -6 -2 -5 -13z"/>
<path d="M5660 6793 c0 -3 5 -13 11 -24 7 -14 16 -18 30 -14 14 5 19 2 19 -10
0 -11 -5 -15 -15 -11 -9 3 -15 0 -15 -9 0 -16 9 -18 33 -9 17 6 11 48 -10 66
-14 11 -53 19 -53 11z"/>
<path d="M5501 6764 c0 -11 3 -14 6 -6 3 7 2 16 -1 19 -3 4 -6 -2 -5 -13z"/>
<path d="M5391 6734 c0 -11 3 -14 6 -6 3 7 2 16 -1 19 -3 4 -6 -2 -5 -13z"/>
<path d="M5693 6525 c7 -14 15 -25 20 -25 10 0 9 8 -3 31 -16 28 -30 23 -17
-6z"/>
<path d="M5466 6527 c3 -10 9 -15 12 -12 3 3 0 11 -7 18 -10 9 -11 8 -5 -6z"/>
<path d="M5470 6480 c0 -5 5 -10 10 -10 6 0 10 5 10 10 0 6 -4 10 -10 10 -5 0
-10 -4 -10 -10z"/>
<path d="M5628 6463 c6 -2 18 -2 25 0 6 3 1 5 -13 5 -14 0 -19 -2 -12 -5z"/>
<path d="M4592 6233 l3 -107 281 -251 c155 -137 301 -274 325 -302 38 -46 49
-53 81 -53 20 0 40 -4 43 -10 4 -6 -11 -10 -39 -10 -25 0 -48 5 -52 11 -5 8
-9 8 -14 -2 -9 -19 0 -109 11 -109 5 0 9 6 9 14 0 27 69 37 98 14 27 -22 8 93
-42 252 -8 25 -21 72 -30 105 -16 63 -59 191 -96 285 -38 99 -48 136 -38 154
7 12 5 16 -7 16 -8 0 -15 9 -15 20 0 11 -4 20 -8 20 -4 0 -13 14 -19 30 l-11
30 -241 0 -242 0 3 -107z"/>
<path d="M5150 6330 c0 -5 5 -10 11 -10 5 0 7 5 4 10 -3 6 -8 10 -11 10 -2 0
-4 -4 -4 -10z"/>
<path d="M5183 6307 c0 -18 -3 -44 -7 -59 -5 -19 -4 -28 3 -28 6 0 11 9 11 21
0 11 5 17 10 14 6 -3 10 -15 10 -26 0 -11 7 -19 18 -20 10 0 12 -3 5 -6 -7 -2
-13 -13 -13 -23 0 -10 -4 -21 -9 -24 -15 -10 -20 -68 -5 -62 7 3 15 -3 17 -12
2 -9 3 -5 1 11 -3 19 1 27 12 27 13 0 14 -10 9 -57 -6 -64 -2 -65 20 -7 l15
39 -4 -37 c-3 -21 -1 -38 3 -38 5 0 4 -23 -1 -51 -5 -28 -7 -54 -4 -57 3 -3 6
2 6 11 0 9 4 17 10 17 5 0 7 -7 4 -15 -4 -8 -1 -15 5 -15 6 0 11 -10 11 -23 0
-12 6 -31 13 -42 17 -25 47 -143 47 -185 0 -16 5 -30 10 -30 6 0 10 -9 10 -20
0 -10 10 -47 23 -82 23 -65 57 -112 92 -130 16 -9 16 -6 -5 16 -24 27 -25 32
-24 164 1 76 11 223 23 327 12 105 26 234 31 287 5 54 12 109 16 123 l6 26
-185 -1 -185 -2 1 -31z m308 -244 c-12 -20 -14 -14 -5 12 4 9 9 14 11 11 3 -2
0 -13 -6 -23z m-21 -332 c0 -6 -5 -13 -10 -16 -6 -4 -8 -11 -5 -16 4 -5 -1 -9
-9 -9 -16 0 -22 31 -9 43 10 10 33 8 33 -2z"/>
<path d="M5275 5890 c-3 -5 -1 -10 4 -10 6 0 11 5 11 10 0 6 -2 10 -4 10 -3 0
-8 -4 -11 -10z"/>
<path d="M1772 5637 c-6 -18 -12 -44 -11 -58 0 -16 5 -8 15 24 18 57 14 84 -4
34z"/>
<path d="M3677 5648 c16 -18 16 -18 -13 -3 -38 20 -51 19 -51 -2 0 -10 -6 -34
-13 -53 -14 -34 -14 -35 -21 -10 l-6 25 -12 -30 c-10 -23 -10 -34 0 -50 6 -11
8 -17 4 -13 -5 4 -15 2 -24 -5 -14 -11 -14 -10 -2 6 9 12 10 17 2 17 -7 0 -9
5 -6 10 3 6 3 19 0 30 -5 17 -15 20 -61 19 -52 -2 -82 -17 -70 -37 5 -8 90
-28 107 -24 3 0 6 -6 6 -14 0 -17 1 -17 -32 -4 -19 7 -25 7 -23 -3 4 -23 -22
-57 -46 -57 -13 0 -45 -10 -72 -22 -27 -12 -55 -22 -61 -22 -7 -1 -12 -5 -10
-11 1 -5 6 -9 10 -7 5 1 6 -2 2 -8 -4 -7 -13 -5 -26 4 -18 12 -24 12 -47 0
-15 -8 -32 -14 -38 -14 -6 0 -29 -16 -52 -36 -43 -36 -54 -64 -27 -64 8 0 15
-5 15 -12 0 -6 3 -8 7 -5 3 4 15 0 25 -10 20 -18 116 -20 150 -2 11 6 27 8 36
4 24 -9 196 -6 370 7 6 1 12 5 12 10 0 5 10 4 21 -3 17 -9 20 -8 14 2 -6 9 -3
11 8 6 10 -3 17 -2 17 3 0 6 13 10 29 10 16 0 41 4 55 9 13 6 26 6 28 2 2 -5
37 0 78 10 41 11 89 17 105 15 17 -3 68 1 115 8 47 8 88 12 93 9 4 -2 7 -1 7
4 0 4 21 9 47 9 30 1 51 7 59 18 6 9 27 17 48 18 28 1 36 5 36 20 0 11 -7 18
-19 18 -30 0 -51 11 -51 26 0 8 -6 14 -14 14 -7 0 -19 6 -25 14 -12 14 -75 24
-183 30 -27 1 -55 10 -66 19 -11 10 -35 17 -61 17 -24 0 -49 6 -57 15 -9 8
-24 15 -35 15 -24 0 -26 -35 -1 -49 15 -9 15 -10 -4 -11 -12 0 -24 7 -28 15
-3 8 -11 15 -17 15 -8 0 -8 -4 0 -13 8 -10 7 -17 -1 -25 -13 -13 -68 11 -68
31 0 8 4 7 10 -3 7 -11 9 -8 8 15 -1 20 -14 41 -38 62 -19 18 -29 32 -22 33 6
0 12 -4 12 -10 0 -5 7 -10 15 -10 18 0 20 16 3 23 -8 3 -6 6 5 6 9 1 17 -2 17
-6 0 -5 11 -8 24 -8 13 0 22 5 19 11 -2 7 -29 10 -69 9 -35 -2 -67 1 -70 6 -3
5 -25 8 -50 7 -43 -1 -44 -2 -27 -20z m83 2 c3 0 -2 -5 -10 -10 -22 -14 -47
-12 -53 4 -5 12 14 14 63 6z m1 -50 c21 -12 26 -35 6 -27 -8 3 -20 -3 -28 -14
-7 -10 -16 -19 -20 -19 -12 0 -16 25 -7 45 8 18 8 18 4 -3 -3 -15 0 -22 7 -19
7 2 12 14 11 26 -1 24 0 25 27 11z m77 -28 c2 -7 -3 -12 -11 -12 -8 0 -18 -7
-21 -16 -3 -8 -2 -12 4 -9 6 3 10 2 10 -4 0 -5 3 -18 7 -28 6 -16 5 -16 -10
-4 -20 16 -23 2 -4 -19 10 -12 9 -12 -5 -1 -16 12 -18 11 -18 -5 0 -15 -3 -15
-25 6 -21 19 -25 21 -25 7 0 -9 -1 -17 -2 -18 -43 -8 -88 -9 -88 0 0 5 -13 8
-30 6 -16 -2 -30 1 -30 7 0 5 7 8 14 5 11 -4 13 -1 9 10 -5 12 -3 14 6 8 10
-6 11 -2 6 16 -9 30 -17 37 -22 22 -6 -16 -43 -17 -43 -2 0 6 6 9 14 6 7 -3
17 -2 22 3 14 13 66 0 60 -16 -3 -8 0 -11 10 -7 8 3 24 -3 34 -12 12 -11 20
-13 20 -7 0 7 9 12 19 12 14 0 18 5 14 19 -4 16 2 21 31 26 21 4 33 12 30 17
-4 6 -1 9 6 6 8 -2 16 -10 18 -16z m152 -26 c0 -3 -4 -8 -10 -11 -5 -3 -10 -1
-10 4 0 6 5 11 10 11 6 0 10 -2 10 -4z m279 -85 c50 -2 10 -12 -80 -20 -64 -5
-98 -4 -108 3 -11 8 1 12 50 16 35 3 75 4 89 4 14 -1 36 -2 49 -3z m-869 -62
c8 -1 -7 -5 -35 -8 -53 -7 -75 -3 -55 9 11 7 41 6 90 -1z m780 -8 c0 -12 -70
-20 -76 -9 -3 5 -12 4 -19 -2 -7 -6 -21 -7 -31 -3 -17 6 -16 8 6 13 42 10 120
11 120 1z m200 -11 c0 -13 -11 -13 -30 0 -12 8 -11 10 8 10 12 0 22 -4 22 -10z
m-1169 -37 c13 -16 12 -17 -3 -4 -10 7 -18 15 -18 17 0 8 8 3 21 -13z m-2 -25
c12 -3 12 -6 -2 -11 -9 -3 -17 -2 -17 4 0 6 -4 8 -9 4 -6 -3 -9 4 -8 15 1 17
3 19 12 7 5 -7 17 -16 24 -19z m471 -8 c0 -5 -4 -10 -9 -10 -6 0 -13 5 -16 10
-3 6 1 10 9 10 9 0 16 -4 16 -10z"/>
<path d="M3770 5505 c0 -8 5 -15 10 -15 6 0 10 7 10 15 0 8 -4 15 -10 15 -5 0
-10 -7 -10 -15z"/>
<path d="M3658 5503 c6 -2 10 -9 6 -14 -3 -5 2 -9 10 -9 9 0 16 7 16 15 0 9
-9 15 -22 14 -13 0 -17 -3 -10 -6z"/>
<path d="M3583 5648 c-15 -20 -25 -38 -20 -38 3 0 12 11 21 25 17 26 16 35 -1
13z"/>
<path d="M3916 5635 c4 -8 11 -15 16 -15 6 0 5 6 -2 15 -7 8 -14 15 -16 15 -2
0 -1 -7 2 -15z"/>
<path d="M1804 5588 l-19 -23 23 19 c21 18 27 26 19 26 -2 0 -12 -10 -23 -22z"/>
<path d="M1859 5593 c-13 -16 -12 -17 4 -4 9 7 17 15 17 17 0 8 -8 3 -21 -13z"/>
<path d="M1806 5517 c-22 -29 -28 -43 -15 -30 21 19 65 83 57 83 -2 0 -20 -24
-42 -53z"/>
<path d="M1746 5516 c-4 -20 -10 -35 -14 -32 -4 2 -5 -31 -3 -74 2 -56 -2 -92
-13 -122 -9 -24 -20 -81 -25 -128 -7 -73 -6 -86 8 -95 26 -16 61 -16 54 0 -2
8 -8 14 -11 13 -25 -3 -42 4 -42 17 0 18 12 19 29 3 10 -11 11 -10 6 4 -4 9
-13 19 -21 22 -9 3 -14 19 -13 43 l2 38 8 -40 c6 -33 7 -30 4 23 -2 34 1 60 5
57 12 -8 33 102 27 141 -4 20 0 40 11 55 8 12 10 19 4 15 -14 -9 -16 13 -3 47
5 13 6 29 1 36 -5 8 -10 0 -14 -23z"/>
<path d="M5360 5500 c6 -10 9 -23 8 -27 -6 -23 15 -53 38 -53 16 0 24 -6 24
-17 0 -13 -3 -14 -12 -5 -7 7 -16 12 -22 12 -5 0 -1 -6 9 -14 11 -8 25 -12 32
-9 19 8 16 31 -7 43 -11 6 -20 20 -20 30 0 21 -33 60 -50 60 -7 0 -7 -6 0 -20z"/>
<path d="M1450 5481 c0 -5 5 -13 10 -16 6 -3 10 -2 10 4 0 5 -4 13 -10 16 -5
3 -10 2 -10 -4z"/>
<path d="M4450 5470 c0 -5 -7 -10 -15 -10 -8 0 -15 -4 -15 -8 0 -16 45 -5 48
11 2 9 -1 17 -7 17 -6 0 -11 -4 -11 -10z"/>
<path d="M5460 5400 c0 -5 5 -10 11 -10 5 0 7 5 4 10 -3 6 -8 10 -11 10 -2 0
-4 -4 -4 -10z"/>
<path d="M1470 5368 c0 -12 1 -19 3 -17 1 2 9 12 16 22 12 14 11 17 -3 17 -10
0 -16 -8 -16 -22z"/>
<path d="M5275 5301 c-3 -5 -1 -12 5 -16 5 -3 10 1 10 9 0 18 -6 21 -15 7z"/>
<path d="M5308 5288 c-9 -5 -6 -8 10 -8 12 0 22 -4 22 -8 0 -4 -25 -5 -56 -2
-53 6 -80 -4 -54 -20 10 -6 12 -35 6 -129 -8 -138 -1 -161 44 -161 31 0 80 18
80 30 0 4 10 6 22 6 24 -1 35 24 22 52 -4 9 -6 20 -6 25 4 17 13 95 17 143 3
50 3 51 -21 46 -15 -3 -23 -10 -20 -17 2 -8 1 -26 -4 -42 -5 -18 -9 -21 -9 -9
-1 10 -9 25 -18 32 -17 13 -17 13 1 14 12 0 16 5 12 16 -3 9 -6 21 -6 28 0 14
-23 17 -42 4z"/>
<path d="M5380 5285 c0 -9 5 -15 11 -13 6 2 11 8 11 13 0 5 -5 11 -11 13 -6 2
-11 -4 -11 -13z"/>
<path d="M1540 5245 c-7 -9 -11 -17 -9 -20 3 -2 10 5 17 15 14 24 10 26 -8 5z"/>
<path d="M1540 5165 c0 -8 4 -15 10 -15 5 0 7 7 4 15 -4 8 -8 15 -10 15 -2 0
-4 -7 -4 -15z"/>
<path d="M1465 5140 c-3 -5 -4 -14 -1 -19 4 -5 -3 -7 -14 -4 -14 4 -20 0 -20
-10 0 -13 6 -14 31 -7 18 5 36 7 40 4 5 -3 6 2 3 10 -3 9 -12 12 -22 9 -11 -5
-14 -2 -9 10 7 19 2 23 -8 7z"/>
<path d="M1550 5111 c0 -14 41 -35 49 -24 3 4 4 7 2 5 -2 -1 -15 5 -28 13 -13
9 -23 11 -23 6z"/>
<path d="M1510 5065 c-8 -9 -8 -15 -2 -15 12 0 26 19 19 26 -2 2 -10 -2 -17
-11z"/>
<path d="M1550 5070 c0 -5 5 -10 11 -10 5 0 7 5 4 10 -3 6 -8 10 -11 10 -2 0
-4 -4 -4 -10z"/>
<path d="M1288 5003 c7 -3 16 -2 19 1 4 3 -2 6 -13 5 -11 0 -14 -3 -6 -6z"/>
<path d="M1466 4982 c-3 -5 8 -6 24 -4 17 2 38 1 47 -2 15 -6 15 -8 3 -16 -12
-8 -12 -10 4 -10 12 0 16 5 12 16 -3 9 -6 18 -6 20 0 8 -79 4 -84 -4z"/>
<path d="M2085 4970 c5 -15 1 -22 -17 -29 -22 -10 -22 -10 5 -10 19 -1 26 3
21 11 -5 8 -2 9 10 5 10 -4 28 -4 41 -1 36 9 12 39 -32 42 -31 2 -34 0 -28
-18z m62 -3 c2 -3 -4 -7 -14 -9 -10 -3 -24 1 -31 9 -11 11 -9 13 14 9 14 -3
28 -7 31 -9z"/>
<path d="M1990 4961 c0 -12 39 -25 47 -17 4 3 -1 6 -10 6 -9 0 -17 5 -17 10 0
6 -4 10 -10 10 -5 0 -10 -4 -10 -9z"/>
<path d="M2020 4966 c0 -2 11 -6 25 -8 13 -3 22 -1 19 3 -5 9 -44 13 -44 5z"/>
<path d="M2251 4914 c0 -11 3 -14 6 -6 3 7 2 16 -1 19 -3 4 -6 -2 -5 -13z"/>
<path d="M3940 4120 c0 -17 4 -20 22 -15 17 6 20 4 14 -10 -4 -13 -2 -16 9
-11 8 3 15 1 15 -4 0 -6 0 -12 0 -15 0 -14 37 -41 53 -37 9 2 17 -1 17 -7 0
-6 -4 -11 -10 -11 -16 0 -12 -27 5 -34 8 -3 12 -11 9 -19 -2 -7 6 -19 21 -27
19 -10 25 -22 26 -49 1 -20 2 -47 3 -61 1 -21 6 -25 31 -25 19 0 29 -5 27 -12
-1 -7 5 -13 13 -13 8 0 15 -6 15 -14 0 -12 5 -12 30 -3 36 14 48 4 25 -19 -9
-9 -21 -28 -26 -40 -9 -26 -2 -57 12 -48 5 3 9 -6 9 -20 0 -13 3 -32 7 -42 4
-11 3 -15 -5 -10 -6 3 -13 2 -17 -4 -3 -5 1 -10 11 -10 13 0 14 -3 5 -13 -6
-8 -8 -17 -4 -20 13 -14 23 -6 23 19 0 14 4 23 9 19 5 -3 12 -1 16 5 3 5 13
10 22 10 12 0 9 -6 -10 -23 -15 -12 -27 -28 -27 -34 0 -17 83 -39 88 -24 5 16
29 13 36 -5 4 -9 11 -12 18 -7 7 4 18 8 23 8 15 0 18 44 5 60 -7 9 -8 15 0 20
6 4 10 59 10 144 l0 138 -37 32 c-38 33 -42 34 -113 31 -44 -1 -45 -1 -47 32
-2 34 -4 35 -113 128 -52 43 -56 44 -125 45 -39 1 -77 5 -83 9 -8 5 -12 0 -12
-14z m210 -247 c0 -19 -13 -9 -16 12 -1 8 2 13 7 9 5 -3 9 -12 9 -21z m15 -33
c3 -5 -1 -10 -10 -10 -9 0 -13 5 -10 10 3 6 8 10 10 10 2 0 7 -4 10 -10z m39
-24 c-3 -9 -10 -13 -15 -10 -5 3 -3 11 4 19 15 16 19 13 11 -9z m34 -30 c-2
-20 -5 -22 -19 -13 -16 10 -16 12 -1 24 22 16 22 17 20 -11z"/>
<path d="M1234 4068 c-10 -12 -12 -104 -3 -113 2 -2 2 -26 1 -53 -3 -43 -6
-49 -23 -45 -17 5 -19 -1 -19 -66 0 -64 2 -71 19 -71 11 0 26 -9 34 -20 l14
-20 18 20 c12 13 31 20 57 20 21 0 38 4 38 10 0 5 10 10 23 10 12 -1 36 2 54
6 24 5 36 1 53 -16 26 -26 33 -21 32 20 0 16 4 30 9 30 6 0 7 -5 3 -11 -4 -7
0 -9 14 -5 13 4 22 1 25 -8 5 -12 20 -14 78 -11 76 5 144 -7 153 -28 3 -8 9
-7 19 6 13 15 36 18 160 22 139 4 231 18 243 36 9 16 -49 31 -100 26 -30 -3
-63 1 -83 9 -47 20 -84 19 -77 -3 5 -17 5 -17 -9 -1 -8 10 -31 20 -52 24 -68
10 -86 21 -80 46 6 29 -22 70 -34 50 -4 -8 -7 -27 -5 -43 4 -32 -27 -58 -49
-41 -15 12 -48 12 -41 0 3 -5 10 -6 15 -3 5 4 9 1 9 -5 0 -13 -41 -3 -51 12
-8 13 -79 -10 -96 -30 -10 -12 -14 -10 -24 12 -7 15 -18 25 -25 22 -10 -4 -12
13 -8 73 4 55 2 81 -6 86 -29 18 -34 -28 -14 -124 6 -32 6 -34 -19 -28 -27 7
-59 -16 -35 -26 9 -4 10 -6 1 -6 -7 -1 -20 7 -30 17 -40 40 -120 55 -143 27
-21 -25 -29 -17 -19 17 23 80 2 214 -27 176z m22 -154 c-4 -9 -9 -15 -11 -12
-3 3 -3 13 1 22 4 9 9 15 11 12 3 -3 3 -13 -1 -22z m81 -78 c4 -3 15 -6 25 -6
10 0 18 -3 18 -7 0 -10 -57 -9 -130 2 -42 6 -50 10 -35 16 22 8 112 5 122 -5z
m488 -16 c-3 -5 -11 -10 -16 -10 -6 0 -7 5 -4 10 3 6 11 10 16 10 6 0 7 -4 4
-10z m-350 -10 c3 -6 -1 -7 -9 -4 -18 7 -21 14 -7 14 6 0 13 -4 16 -10z m452
-7 c-9 -9 -20 -13 -24 -9 -4 4 -1 11 7 16 25 16 35 11 17 -7z m-608 -9 c2 -2
-10 -4 -27 -4 -18 0 -32 5 -32 10 0 9 47 4 59 -6z"/>
<path d="M5937 3804 c3 -148 7 -271 9 -273 15 -17 19 43 16 260 -2 219 -1 249
13 249 15 0 18 -54 20 -403 0 -53 2 -97 5 -97 29 1 31 20 26 265 -3 136 -7
250 -10 252 -2 3 -23 7 -45 10 l-41 6 7 -269z"/>
<path d="M3654 4040 c-39 -15 -41 -83 -3 -95 10 -4 19 -13 19 -21 0 -8 4 -14
9 -14 6 0 6 12 1 28 -4 16 -4 36 1 45 9 15 8 52 -2 61 -2 2 -14 0 -25 -4z"/>
<path d="M3700 4043 c0 -5 11 -21 24 -38 20 -24 27 -28 37 -17 10 9 10 12 1
12 -7 0 -12 7 -12 15 0 8 -9 19 -19 25 -23 12 -31 13 -31 3z"/>
<path d="M3748 3963 c7 -3 16 -2 19 1 4 3 -2 6 -13 5 -11 0 -14 -3 -6 -6z"/>
<path d="M3750 3932 c0 -6 7 -17 15 -25 11 -12 12 -17 2 -20 -6 -2 1 -8 17
-12 20 -5 31 -4 37 6 13 20 12 23 -19 37 -47 23 -52 24 -52 14z"/>
<path d="M5839 3908 c-10 -18 -9 -20 6 -15 14 6 13 2 -5 -28 -12 -19 -28 -48
-37 -65 -8 -17 -25 -35 -36 -39 -21 -8 -21 -8 -2 -18 26 -14 45 -6 45 18 0 11
11 31 25 45 14 14 25 29 25 34 0 5 9 14 20 20 22 12 22 25 0 52 -19 23 -27 23
-41 -4z"/>
<path d="M5946 3509 c5 -8 9 -18 10 -24 0 -5 2 -16 2 -23 1 -7 7 -10 12 -7 6
4 7 12 3 18 -4 7 -8 18 -8 26 0 8 -6 16 -14 19 -10 3 -11 0 -5 -9z"/>
<path d="M6000 3510 c0 -5 7 -10 16 -10 8 0 12 5 9 10 -3 6 -10 10 -16 10 -5
0 -9 -4 -9 -10z"/>
<path d="M6010 3470 c0 -5 5 -10 10 -10 6 0 10 5 10 10 0 6 -4 10 -10 10 -5 0
-10 -4 -10 -10z"/>
<path d="M4390 3460 c0 -5 7 -10 16 -10 8 0 12 5 9 10 -3 6 -10 10 -16 10 -5
0 -9 -4 -9 -10z"/>
<path d="M5944 3184 c-12 -8 -41 -18 -65 -23 -27 -5 -34 -9 -19 -10 14 0 43 4
65 11 22 6 43 11 48 10 4 -1 7 5 7 13 0 18 -9 18 -36 -1z"/>
<path d="M5555 3079 l-50 -18 43 -1 c25 0 50 6 58 14 22 23 3 25 -51 5z"/>
<path d="M5418 3073 c7 -3 16 -2 19 1 4 3 -2 6 -13 5 -11 0 -14 -3 -6 -6z"/>
<path d="M5343 3063 c9 -2 25 -2 35 0 9 3 1 5 -18 5 -19 0 -27 -2 -17 -5z"/>
<path d="M4237 2934 c-3 -3 -56 -5 -118 -5 -62 1 -111 -1 -108 -3 3 -3 44 -6
92 -7 48 -1 87 -5 87 -10 0 -5 -8 -9 -17 -9 -13 0 -12 -4 7 -13 27 -15 44 -12
20 3 -13 8 -12 10 3 10 10 0 20 -7 23 -15 6 -14 8 -13 19 2 12 16 10 19 -13
24 -24 6 -22 7 11 8 22 0 36 -3 32 -8 -3 -6 3 -14 12 -20 14 -8 15 -11 3 -12
-8 -1 3 -5 25 -9 27 -5 42 -4 47 4 6 8 8 8 8 0 0 -7 11 -15 25 -18 14 -4 25
-14 25 -22 0 -10 6 -14 14 -11 9 4 16 -1 19 -11 2 -9 7 9 11 40 12 89 13 88
-112 88 -60 0 -111 -3 -115 -6z"/>
<path d="M3861 2925 c8 -8 127 -10 135 -2 4 4 -26 7 -66 7 -40 0 -71 -2 -69
-5z"/>
<path d="M1491 1984 c0 -11 3 -14 6 -6 3 7 2 16 -1 19 -3 4 -6 -2 -5 -13z"/>
<path d="M1521 1974 c0 -11 3 -14 6 -6 3 7 2 16 -1 19 -3 4 -6 -2 -5 -13z"/>
<path d="M1552 1932 c-1 -36 -6 -52 -14 -51 -7 1 -24 1 -37 0 -41 -2 -8 -27
113 -84 99 -48 157 -87 128 -87 -5 0 -12 6 -15 14 -4 11 -57 30 -57 21 0 -2
19 -14 43 -28 40 -23 385 -279 450 -333 29 -24 29 -24 317 -24 l289 0 0 165 1
164 -38 6 c-20 4 -50 9 -67 11 -23 4 -26 3 -15 -5 11 -8 11 -11 2 -11 -7 0
-15 6 -18 13 -3 8 -23 13 -52 14 -26 0 -96 12 -156 27 -107 27 -162 30 -70 4
26 -7 50 -20 52 -28 4 -13 3 -13 -11 -2 -9 8 -22 10 -28 6 -16 -10 14 -22 55
-23 24 -1 27 -3 16 -16 -8 -9 -8 -15 -2 -15 6 0 19 -3 29 -6 16 -5 17 -5 1 6
-9 6 -15 17 -12 25 4 10 0 15 -15 15 -12 0 -21 4 -21 8 0 5 23 4 50 -2 28 -5
50 -14 50 -19 0 -5 -11 -6 -25 -3 -14 4 -25 2 -25 -4 0 -5 9 -10 20 -10 11 0
20 -7 20 -15 0 -8 17 -19 39 -26 45 -13 49 -21 41 -65 l-5 -31 -82 38 c-76 35
-83 40 -83 67 0 21 -6 31 -20 35 -16 4 -20 0 -20 -20 0 -16 -4 -23 -12 -20
-86 34 -138 62 -138 73 0 10 -7 13 -24 8 -17 -4 -30 1 -44 16 -11 12 -26 19
-32 15 -6 -4 -16 -2 -23 3 -7 5 -41 18 -77 27 -36 10 -70 24 -76 32 -8 9 -13
10 -16 3 -2 -7 -32 -1 -87 19 -46 16 -90 27 -98 24 -8 -3 -21 3 -29 13 -11 14
-17 15 -20 7 -9 -21 -24 -15 -25 10 0 21 -1 21 -9 2 -8 -21 -8 -21 -23 25 -4
10 -6 7 -6 -6 -1 -18 -18 -34 -36 -34 -2 0 -6 19 -8 43 l-4 42 -1 -42 c-1 -30
-6 -43 -16 -43 -11 0 -16 15 -19 53 l-3 52 -2 -53z m1023 -290 c-8 -8 -25 10
-19 20 4 6 9 5 15 -3 4 -7 6 -15 4 -17z m155 8 c-10 -6 -8 -9 6 -13 14 -3 12
-5 -8 -6 -14 0 -29 -7 -32 -13 -5 -10 -7 -10 -12 0 -3 6 -10 10 -15 6 -13 -8
-11 3 4 18 8 7 26 14 42 15 18 1 23 -2 15 -7z m-83 -23 c-3 -9 8 -18 29 -26
32 -12 34 -15 34 -62 0 -27 -2 -49 -5 -49 -2 0 -20 8 -40 17 -33 16 -35 20
-35 64 0 26 -3 49 -7 52 -5 2 -2 2 5 1 6 -2 12 1 12 6 0 6 3 10 6 10 3 0 4 -6
1 -13z m93 -17 c-19 -13 -30 -13 -30 0 0 6 10 10 23 10 18 0 19 -2 7 -10z"/>
<path d="M5059 1858 c-38 -40 -39 -44 -9 -28 16 9 19 4 24 -38 3 -26 6 -72 7
-102 1 -52 2 -50 17 40 9 52 20 98 25 101 4 3 0 19 -10 36 l-18 29 -36 -38z"/>
<path d="M1970 1840 c20 -13 33 -13 25 0 -3 6 -14 10 -23 10 -15 0 -15 -2 -2
-10z"/>
<path d="M2040 1829 c0 -5 5 -7 10 -4 6 3 10 8 10 11 0 2 -4 4 -10 4 -5 0 -10
-5 -10 -11z"/>
<path d="M2110 1816 c0 -2 7 -7 16 -10 8 -3 12 -2 9 4 -6 10 -25 14 -25 6z"/>
<path d="M2160 1796 c7 -7 14 -6 21 1 9 9 7 12 -9 10 -14 -1 -18 -5 -12 -11z"/>
<path d="M2213 1794 c9 -3 17 -9 17 -14 0 -5 7 -7 16 -3 11 4 15 1 12 -12 -2
-10 3 -20 11 -23 10 -3 12 0 8 12 -4 9 -1 16 6 16 23 1 -25 22 -56 25 -18 2
-24 1 -14 -1z"/>
<path d="M2398 1783 c6 -2 18 -2 25 0 6 3 1 5 -13 5 -14 0 -19 -2 -12 -5z"/>
<path d="M2508 1763 c7 -3 16 -2 19 1 4 3 -2 6 -13 5 -11 0 -14 -3 -6 -6z"/>
<path d="M2548 1753 c6 -2 18 -2 25 0 6 3 1 5 -13 5 -14 0 -19 -2 -12 -5z"/>
<path d="M2635 1735 c28 -8 64 -14 80 -14 20 1 9 5 -30 14 -79 18 -114 18 -50
0z"/>
<path d="M2335 1730 c-8 -13 5 -13 25 0 13 8 13 10 -2 10 -9 0 -20 -4 -23 -10z"/>
<path d="M5953 1675 c0 -22 2 -30 4 -17 2 12 2 30 0 40 -3 9 -5 -1 -4 -23z"/>
<path d="M6163 1670 c0 -25 2 -35 4 -22 2 12 2 32 0 45 -2 12 -4 2 -4 -23z"/>
<path d="M4680 1665 c0 -19 5 -35 10 -35 6 0 10 16 10 35 0 19 -4 35 -10 35
-5 0 -10 -16 -10 -35z"/>
<path d="M5512 1670 c0 -19 2 -27 5 -17 2 9 2 25 0 35 -3 9 -5 1 -5 -18z"/>
<path d="M5720 1670 c0 -16 5 -30 10 -30 6 0 10 14 10 30 0 17 -4 30 -10 30
-5 0 -10 -13 -10 -30z"/>
<path d="M4868 1665 c-3 -14 -1 -25 3 -25 5 0 9 11 9 25 0 14 -2 25 -4 25 -2
0 -6 -11 -8 -25z"/>
<path d="M5292 1665 c-1 -14 3 -25 8 -25 6 0 10 11 10 25 0 14 -4 25 -8 25 -4
0 -9 -11 -10 -25z"/>
<path d="M3435 1645 c-22 -8 -42 -15 -44 -15 -2 0 2 -7 9 -15 7 -8 9 -15 5
-15 -4 0 -2 -7 5 -15 8 -10 31 -15 71 -15 46 0 59 3 59 15 0 9 9 15 25 15 16
0 25 -6 25 -15 0 -17 25 -20 35 -5 3 6 -1 13 -9 16 -9 3 -14 10 -11 14 4 7
-107 51 -124 50 -3 -1 -24 -7 -46 -15z m139 -24 c12 -5 1 -7 -30 -7 -27 0 -63
-8 -80 -17 -17 -9 -34 -13 -38 -10 -7 8 81 41 109 41 11 1 28 -3 39 -7z"/>
<path d="M3812 1636 c20 -6 40 -14 44 -18 10 -11 24 -10 24 0 0 10 -69 33 -91
31 -8 -1 3 -6 23 -13z"/>
<path d="M3870 1595 c-11 -13 -9 -15 15 -15 16 0 25 5 23 12 -7 19 -24 20 -38
3z"/>
<path d="M3560 1580 c0 -5 5 -10 10 -10 6 0 10 5 10 10 0 6 -4 10 -10 10 -5 0
-10 -4 -10 -10z"/>
<path d="M920 340 l0 -340 2760 0 2760 0 0 340 0 340 -2760 0 -2760 0 0 -340z
m2417 -5 c-8 -19 -23 -19 -30 -1 -4 10 -1 13 9 9 7 -3 14 1 14 8 0 7 3 10 6 6
4 -3 4 -13 1 -22z"/>
<path d="M7054 297 c-3 -8 -4 -43 -2 -78 l3 -64 75 0 75 0 0 75 0 75 -73 3
c-55 2 -74 -1 -78 -11z m90 -65 c2 -4 -4 -8 -14 -8 -10 0 -16 4 -14 8 3 4 9 8
14 8 5 0 11 -4 14 -8z"/>
</g>
</svg>
